<?xml version="1.0" standalone="no"?><svg xmlns="http://www.w3.org/2000/svg" viewBox="0 0 1440 320"><path fill="#34c6bf" fill-opacity="1" d="M0,128L21.8,138.7C43.6,149,87,171,131,197.3C174.5,224,218,256,262,224C305.5,192,349,96,393,85.3C436.4,75,480,149,524,165.3C567.3,181,611,139,655,133.3C698.2,128,742,160,785,154.7C829.1,149,873,107,916,122.7C960,139,1004,213,1047,208C1090.9,203,1135,117,1178,122.7C1221.8,128,1265,224,1309,256C1352.7,288,1396,256,1418,240L1440,224L1440,320L1418.2,320C1396.4,320,1353,320,1309,320C1265.5,320,1222,320,1178,320C1134.5,320,1091,320,1047,320C1003.6,320,960,320,916,320C872.7,320,829,320,785,320C741.8,320,698,320,655,320C610.9,320,567,320,524,320C480,320,436,320,393,320C349.1,320,305,320,262,320C218.2,320,175,320,131,320C87.3,320,44,320,22,320L0,320Z"></path></svg>